ffmpeg started on 2025-05-12 at 13:51:28
Report written to "D:\Convert\FFMetrics\reports\ssim_report-6.txt"
Log level: 32
Command line:
ffmpeg -hide_banner -nostdin -i "G:\\\xc0\xed\xe8\xec\xe5\\\xce\xed\xe3\xee\xe8\xed\xe3\xe8\\!_35_\xcb\xe5\xf2\xee_2024\\DreamCast\\\xc0\xf2\xf0\xe8 - \xcc\xee\xe8 \xe4\xee\xf0\xee\xe3\xe8\xe5 \xec\xee\xec\xe5\xed\xf2\xfb\\[DC] Atri - My Dear Moments - 10_Telegram_HEVC.mkv" -i "G:\\\xc0\xed\xe8\xec\xe5\\\xce\xed\xe3\xee\xe8\xed\xe3\xe8\\!_35_\xcb\xe5\xf2\xee_2024\\DreamCast\\\xc0\xf2\xf0\xe8 - \xcc\xee\xe8 \xe4\xee\xf0\xee\xe3\xe8\xe5 \xec\xee\xec\xe5\xed\xf2\xfb\\[DC] Atri - My Dear Moments - 10_Telegram.mp4" -lavfi "[0:v]settb=AVTB,setpts=PTS-STARTPTS,format=pix_fmts=yuv420p10,fps=24000/1001,scale=1920:1080:flags=bicubic[main];[1:v]settb=AVTB,setpts=PTS-STARTPTS,format=pix_fmts=yuv420p,fps=24000/1001,scale=1920:1080:flags=bicubic[ref];[main][ref]ssim=eof_action=endall:stats_file='D\\:/Convert/FFMetrics/logs/ssim_logfile-6.txt'" -f null -
Input #0, matroska,webm, from 'G:\Аниме\Онгоинги\!_35_Лето_2024\DreamCast\Атри - Мои дорогие моменты\[DC] Atri - My Dear Moments - 10_Telegram_HEVC.mkv':
  Metadata:
    COMPATIBLE_BRANDS: isomiso2avc1mp41
    MAJOR_BRAND     : isom
    MINOR_VERSION   : 512
    ENCODER         : Lavf61.7.100
  Duration: 00:26:56.68, start: -0.021000, bitrate: 1030 kb/s
  Stream #0:0: Video: hevc (Main 10), yuv420p10le(tv, bt709, progressive), 1920x1080 [SAR 1:1 DAR 16:9], 23.98 fps, 23.98 tbr, 1k tbn (default)
      Metadata:
        HANDLER_NAME    : VideoHandler
        VENDOR_ID       : [0][0][0][0]
        ENCODER         : Lavc61.19.100 libx265
        BPS             : 832408
        DURATION        : 00:26:56.573708333
        NUMBER_OF_FRAMES: 38759
        NUMBER_OF_BYTES : 168206075
        _STATISTICS_WRITING_APP: mkvpropedit v66.0.0 ('Josie') 64-bit
        _STATISTICS_WRITING_DATE_UTC: 2025-05-06 15:16:00
        _STATISTICS_TAGS: BPS DURATION NUMBER_OF_FRAMES NUMBER_OF_BYTES
  Stream #0:1: Audio: aac (LC), 48000 Hz, stereo, fltp (default)
      Metadata:
        HANDLER_NAME    : SoundHandler
        VENDOR_ID       : [0][0][0][0]
        ENCODER         : Lavc61.19.100 aac
        BPS             : 193748
        DURATION        : 00:26:56.682000000
        NUMBER_OF_FRAMES: 75783
        NUMBER_OF_BYTES : 39153746
        _STATISTICS_WRITING_APP: mkvpropedit v66.0.0 ('Josie') 64-bit
        _STATISTICS_WRITING_DATE_UTC: 2025-05-06 15:16:00
        _STATISTICS_TAGS: BPS DURATION NUMBER_OF_FRAMES NUMBER_OF_BYTES
Input #1, mov,mp4,m4a,3gp,3g2,mj2, from 'G:\Аниме\Онгоинги\!_35_Лето_2024\DreamCast\Атри - Мои дорогие моменты\[DC] Atri - My Dear Moments - 10_Telegram.mp4':
  Metadata:
    major_brand     : isom
    minor_version   : 512
    compatible_brands: isomiso2avc1mp41
    encoder         : Lavf61.1.100
  Duration: 00:26:56.64, start: 0.000000, bitrate: 3394 kb/s
  Stream #1:0[0x1](und): Video: h264 (High) (avc1 / 0x31637661), yuv420p(tv, bt709, progressive), 1920x1080 [SAR 1:1 DAR 16:9], 3246 kb/s, 23.98 fps, 23.98 tbr, 24k tbn (default)
      Metadata:
        handler_name    : VideoHandler
        vendor_id       : [0][0][0][0]
        encoder         : Lavc61.3.100 h264_qsv
  Stream #1:1[0x2](und): Audio: aac (HE-AACv2) (mp4a / 0x6134706D), 48000 Hz, stereo, fltp, 144 kb/s (default)
      Metadata:
        handler_name    : SoundHandler
        vendor_id       : [0][0][0][0]
Stream mapping:
  Stream #0:0 (hevc) -> settb:default
  Stream #1:0 (h264) -> settb:default
  ssim:default -> Stream #0:0 (wrapped_avframe)
  Stream #0:1 -> #0:1 (aac (native) -> pcm_s16le (native))
Output #0, null, to 'pipe:':
  Metadata:
    COMPATIBLE_BRANDS: isomiso2avc1mp41
    MAJOR_BRAND     : isom
    MINOR_VERSION   : 512
    encoder         : Lavf61.7.100
  Stream #0:0: Video: wrapped_avframe, yuv420p10le(tv, bt709, progressive), 1920x1080 [SAR 1:1 DAR 16:9], q=2-31, 200 kb/s, 23.98 fps, 23.98 tbn
      Metadata:
        encoder         : Lavc61.19.100 wrapped_avframe
  Stream #0:1: Audio: pcm_s16le, 48000 Hz, stereo, s16, 1536 kb/s (default)
      Metadata:
        HANDLER_NAME    : SoundHandler
        VENDOR_ID       : [0][0][0][0]
        _STATISTICS_TAGS: BPS DURATION NUMBER_OF_FRAMES NUMBER_OF_BYTES
        BPS             : 193748
        DURATION        : 00:26:56.682000000
        NUMBER_OF_FRAMES: 75783
        NUMBER_OF_BYTES : 39153746
        _STATISTICS_WRITING_APP: mkvpropedit v66.0.0 ('Josie') 64-bit
        _STATISTICS_WRITING_DATE_UTC: 2025-05-06 15:16:00
        encoder         : Lavc61.19.100 pcm_s16le
frame=  161 fps=0.0 q=-0.0 size=N/A time=00:00:06.71 bitrate=N/A speed=13.1x    frame=  387 fps=374 q=-0.0 size=N/A time=00:00:16.14 bitrate=N/A speed=15.6x    frame=  601 fps=390 q=-0.0 size=N/A time=00:00:25.06 bitrate=N/A speed=16.3x    frame=  812 fps=393 q=-0.0 size=N/A time=00:00:33.86 bitrate=N/A speed=16.4x    frame= 1035 fps=400 q=-0.0 size=N/A time=00:00:43.16 bitrate=N/A speed=16.7x    frame= 1258 fps=407 q=-0.0 size=N/A time=00:00:52.46 bitrate=N/A speed=  17x    frame= 1478 fps=409 q=-0.0 size=N/A time=00:01:01.64 bitrate=N/A speed=17.1x    frame= 1688 fps=409 q=-0.0 size=N/A time=00:01:10.40 bitrate=N/A speed=17.1x    frame= 1906 fps=410 q=-0.0 size=N/A time=00:01:19.49 bitrate=N/A speed=17.1x    frame= 2116 fps=411 q=-0.0 size=N/A time=00:01:28.25 bitrate=N/A speed=17.1x    frame= 2353 fps=414 q=-0.0 size=N/A time=00:01:38.13 bitrate=N/A speed=17.3x    frame= 2570 fps=415 q=-0.0 size=N/A time=00:01:47.19 bitrate=N/A speed=17.3x    frame= 2792 fps=416 q=-0.0 size=N/A time=00:01:56.44 bitrate=N/A speed=17.4x    frame= 3023 fps=419 q=-0.0 size=N/A time=00:02:06.08 bitrate=N/A speed=17.5x    frame= 3248 fps=420 q=-0.0 size=N/A time=00:02:15.46 bitrate=N/A speed=17.5x    frame= 3482 fps=422 q=-0.0 size=N/A time=00:02:25.22 bitrate=N/A speed=17.6x    frame= 3714 fps=423 q=-0.0 size=N/A time=00:02:34.90 bitrate=N/A speed=17.7x    frame= 3940 fps=424 q=-0.0 size=N/A time=00:02:44.33 bitrate=N/A speed=17.7x    frame= 4161 fps=424 q=-0.0 size=N/A time=00:02:53.54 bitrate=N/A speed=17.7x    frame= 4366 fps=423 q=-0.0 size=N/A time=00:03:02.09 bitrate=N/A speed=17.6x    frame= 4571 fps=421 q=-0.0 size=N/A time=00:03:10.64 bitrate=N/A speed=17.6x    frame= 4791 fps=422 q=-0.0 size=N/A time=00:03:19.82 bitrate=N/A speed=17.6x    frame= 5027 fps=423 q=-0.0 size=N/A time=00:03:29.66 bitrate=N/A speed=17.6x    frame= 5235 fps=423 q=-0.0 size=N/A time=00:03:38.34 bitrate=N/A speed=17.6x    frame= 5469 fps=424 q=-0.0 size=N/A time=00:03:48.10 bitrate=N/A speed=17.7x    frame= 5695 fps=424 q=-0.0 size=N/A time=00:03:57.52 bitrate=N/A speed=17.7x    frame= 5919 fps=424 q=-0.0 size=N/A time=00:04:06.87 bitrate=N/A speed=17.7x    frame= 6126 fps=424 q=-0.0 size=N/A time=00:04:15.50 bitrate=N/A speed=17.7x    frame= 6350 fps=424 q=-0.0 size=N/A time=00:04:24.84 bitrate=N/A speed=17.7x    frame= 6563 fps=424 q=-0.0 size=N/A time=00:04:33.77 bitrate=N/A speed=17.7x    frame= 6789 fps=424 q=-0.0 size=N/A time=00:04:43.15 bitrate=N/A speed=17.7x    frame= 7003 fps=424 q=-0.0 size=N/A time=00:04:52.08 bitrate=N/A speed=17.7x    frame= 7195 fps=422 q=-0.0 size=N/A time=00:05:00.09 bitrate=N/A speed=17.6x    frame= 7408 fps=422 q=-0.0 size=N/A time=00:05:08.97 bitrate=N/A speed=17.6x    frame= 7635 fps=422 q=-0.0 size=N/A time=00:05:18.44 bitrate=N/A speed=17.6x    frame= 7856 fps=422 q=-0.0 size=N/A time=00:05:27.66 bitrate=N/A speed=17.6x    frame= 8072 fps=422 q=-0.0 size=N/A time=00:05:36.66 bitrate=N/A speed=17.6x    frame= 8307 fps=423 q=-0.0 size=N/A time=00:05:46.47 bitrate=N/A speed=17.6x    frame= 8520 fps=423 q=-0.0 size=N/A time=00:05:55.35 bitrate=N/A speed=17.6x    frame= 8750 fps=423 q=-0.0 size=N/A time=00:06:04.94 bitrate=N/A speed=17.7x    frame= 8966 fps=424 q=-0.0 size=N/A time=00:06:13.95 bitrate=N/A speed=17.7x    frame= 9202 fps=424 q=-0.0 size=N/A time=00:06:23.80 bitrate=N/A speed=17.7x    frame= 9425 fps=425 q=-0.0 size=N/A time=00:06:33.10 bitrate=N/A speed=17.7x    frame= 9649 fps=425 q=-0.0 size=N/A time=00:06:42.44 bitrate=N/A speed=17.7x    frame= 9896 fps=426 q=-0.0 size=N/A time=00:06:52.74 bitrate=N/A speed=17.8x    frame=10154 fps=428 q=-0.0 size=N/A time=00:07:03.50 bitrate=N/A speed=17.8x    frame=10393 fps=428 q=-0.0 size=N/A time=00:07:13.47 bitrate=N/A speed=17.9x    frame=10609 fps=428 q=-0.0 size=N/A time=00:07:22.48 bitrate=N/A speed=17.9x    frame=10835 fps=428 q=-0.0 size=N/A time=00:07:31.90 bitrate=N/A speed=17.9x    frame=11074 fps=429 q=-0.0 size=N/A time=00:07:41.87 bitrate=N/A speed=17.9x    frame=11312 fps=430 q=-0.0 size=N/A time=00:07:51.80 bitrate=N/A speed=17.9x    frame=11531 fps=430 q=-0.0 size=N/A time=00:08:00.93 bitrate=N/A speed=17.9x    frame=11749 fps=429 q=-0.0 size=N/A time=00:08:10.03 bitrate=N/A speed=17.9x    frame=11978 fps=430 q=-0.0 size=N/A time=00:08:19.58 bitrate=N/A speed=17.9x    frame=12169 fps=429 q=-0.0 size=N/A time=00:08:27.54 bitrate=N/A speed=17.9x    frame=12402 fps=429 q=-0.0 size=N/A time=00:08:37.26 bitrate=N/A speed=17.9x    frame=12665 fps=430 q=-0.0 size=N/A time=00:08:48.23 bitrate=N/A speed=  18x    frame=12931 fps=432 q=-0.0 size=N/A time=00:08:59.33 bitrate=N/A speed=  18x    frame=13201 fps=433 q=-0.0 size=N/A time=00:09:10.59 bitrate=N/A speed=18.1x    frame=13468 fps=435 q=-0.0 size=N/A time=00:09:21.72 bitrate=N/A speed=18.1x    frame=13731 fps=436 q=-0.0 size=N/A time=00:09:32.69 bitrate=N/A speed=18.2x    frame=14013 fps=438 q=-0.0 size=N/A time=00:09:44.45 bitrate=N/A speed=18.3x    frame=14266 fps=439 q=-0.0 size=N/A time=00:09:55.01 bitrate=N/A speed=18.3x    frame=14532 fps=440 q=-0.0 size=N/A time=00:10:06.10 bitrate=N/A speed=18.3x    frame=14774 fps=440 q=-0.0 size=N/A time=00:10:16.19 bitrate=N/A speed=18.4x    frame=15010 fps=441 q=-0.0 size=N/A time=00:10:26.04 bitrate=N/A speed=18.4x    frame=15279 fps=442 q=-0.0 size=N/A time=00:10:37.26 bitrate=N/A speed=18.4x    frame=15519 fps=442 q=-0.0 size=N/A time=00:10:47.27 bitrate=N/A speed=18.4x    frame=15767 fps=443 q=-0.0 size=N/A time=00:10:57.61 bitrate=N/A speed=18.5x    frame=16053 fps=444 q=-0.0 size=N/A time=00:11:09.54 bitrate=N/A speed=18.5x    frame=16312 fps=445 q=-0.0 size=N/A time=00:11:20.34 bitrate=N/A speed=18.6x    frame=16592 fps=447 q=-0.0 size=N/A time=00:11:32.02 bitrate=N/A speed=18.6x    frame=16857 fps=448 q=-0.0 size=N/A time=00:11:43.07 bitrate=N/A speed=18.7x    frame=17127 fps=448 q=-0.0 size=N/A time=00:11:54.33 bitrate=N/A speed=18.7x    frame=17402 fps=450 q=-0.0 size=N/A time=00:12:05.80 bitrate=N/A speed=18.7x    frame=17651 fps=450 q=-0.0 size=N/A time=00:12:16.19 bitrate=N/A speed=18.8x    frame=17924 fps=451 q=-0.0 size=N/A time=00:12:27.58 bitrate=N/A speed=18.8x    frame=18177 fps=452 q=-0.0 size=N/A time=00:12:38.13 bitrate=N/A speed=18.8x    frame=18444 fps=452 q=-0.0 size=N/A time=00:12:49.26 bitrate=N/A speed=18.9x    frame=18702 fps=453 q=-0.0 size=N/A time=00:13:00.02 bitrate=N/A speed=18.9x    frame=18974 fps=454 q=-0.0 size=N/A time=00:13:11.37 bitrate=N/A speed=18.9x    frame=19214 fps=454 q=-0.0 size=N/A time=00:13:21.38 bitrate=N/A speed=18.9x    frame=19480 fps=455 q=-0.0 size=N/A time=00:13:32.47 bitrate=N/A speed=  19x    frame=19748 fps=456 q=-0.0 size=N/A time=00:13:43.65 bitrate=N/A speed=  19x    frame=20019 fps=456 q=-0.0 size=N/A time=00:13:54.95 bitrate=N/A speed=  19x    frame=20288 fps=457 q=-0.0 size=N/A time=00:14:06.17 bitrate=N/A speed=19.1x    frame=20533 fps=457 q=-0.0 size=N/A time=00:14:16.39 bitrate=N/A speed=19.1x    frame=20789 fps=458 q=-0.0 size=N/A time=00:14:27.07 bitrate=N/A speed=19.1x    frame=21043 fps=458 q=-0.0 size=N/A time=00:14:37.66 bitrate=N/A speed=19.1x    frame=21316 fps=459 q=-0.0 size=N/A time=00:14:49.05 bitrate=N/A speed=19.1x    frame=21586 fps=460 q=-0.0 size=N/A time=00:15:00.31 bitrate=N/A speed=19.2x    frame=21854 fps=460 q=-0.0 size=N/A time=00:15:11.49 bitrate=N/A speed=19.2x    frame=22120 fps=461 q=-0.0 size=N/A time=00:15:22.58 bitrate=N/A speed=19.2x    frame=22365 fps=461 q=-0.0 size=N/A time=00:15:32.80 bitrate=N/A speed=19.2x    frame=22600 fps=461 q=-0.0 size=N/A time=00:15:42.60 bitrate=N/A speed=19.2x    frame=22837 fps=461 q=-0.0 size=N/A time=00:15:52.49 bitrate=N/A speed=19.2x    frame=23086 fps=461 q=-0.0 size=N/A time=00:16:02.87 bitrate=N/A speed=19.2x    frame=23348 fps=462 q=-0.0 size=N/A time=00:16:13.80 bitrate=N/A speed=19.3x    frame=23618 fps=462 q=-0.0 size=N/A time=00:16:25.06 bitrate=N/A speed=19.3x    frame=23887 fps=463 q=-0.0 size=N/A time=00:16:36.28 bitrate=N/A speed=19.3x    frame=24171 fps=464 q=-0.0 size=N/A time=00:16:48.13 bitrate=N/A speed=19.3x    frame=24442 fps=464 q=-0.0 size=N/A time=00:16:59.43 bitrate=N/A speed=19.4x    frame=24698 fps=465 q=-0.0 size=N/A time=00:17:10.11 bitrate=N/A speed=19.4x    frame=24943 fps=465 q=-0.0 size=N/A time=00:17:20.33 bitrate=N/A speed=19.4x    frame=25196 fps=465 q=-0.0 size=N/A time=00:17:30.88 bitrate=N/A speed=19.4x    frame=25457 fps=465 q=-0.0 size=N/A time=00:17:41.76 bitrate=N/A speed=19.4x    frame=25711 fps=466 q=-0.0 size=N/A time=00:17:52.36 bitrate=N/A speed=19.4x    frame=25982 fps=466 q=-0.0 size=N/A time=00:18:03.66 bitrate=N/A speed=19.4x    frame=26232 fps=467 q=-0.0 size=N/A time=00:18:14.09 bitrate=N/A speed=19.5x    frame=26525 fps=467 q=-0.0 size=N/A time=00:18:26.31 bitrate=N/A speed=19.5x    frame=26790 fps=468 q=-0.0 size=N/A time=00:18:37.36 bitrate=N/A speed=19.5x    frame=27045 fps=468 q=-0.0 size=N/A time=00:18:48.00 bitrate=N/A speed=19.5x    frame=27328 fps=469 q=-0.0 size=N/A time=00:18:59.80 bitrate=N/A speed=19.6x    frame=27590 fps=469 q=-0.0 size=N/A time=00:19:10.73 bitrate=N/A speed=19.6x    frame=27858 fps=470 q=-0.0 size=N/A time=00:19:21.91 bitrate=N/A speed=19.6x    frame=28116 fps=470 q=-0.0 size=N/A time=00:19:32.67 bitrate=N/A speed=19.6x    frame=28377 fps=470 q=-0.0 size=N/A time=00:19:43.55 bitrate=N/A speed=19.6x    frame=28625 fps=470 q=-0.0 size=N/A time=00:19:53.90 bitrate=N/A speed=19.6x    frame=28828 fps=470 q=-0.0 size=N/A time=00:20:02.36 bitrate=N/A speed=19.6x    frame=29062 fps=469 q=-0.0 size=N/A time=00:20:12.12 bitrate=N/A speed=19.6x    frame=29294 fps=469 q=-0.0 size=N/A time=00:20:21.80 bitrate=N/A speed=19.6x    frame=29530 fps=469 q=-0.0 size=N/A time=00:20:31.64 bitrate=N/A speed=19.6x    frame=29772 fps=469 q=-0.0 size=N/A time=00:20:41.74 bitrate=N/A speed=19.6x    frame=29990 fps=469 q=-0.0 size=N/A time=00:20:50.83 bitrate=N/A speed=19.6x    frame=30182 fps=468 q=-0.0 size=N/A time=00:20:58.84 bitrate=N/A speed=19.5x    frame=30413 fps=468 q=-0.0 size=N/A time=00:21:08.47 bitrate=N/A speed=19.5x    frame=30660 fps=468 q=-0.0 size=N/A time=00:21:18.77 bitrate=N/A speed=19.5x    frame=30940 fps=469 q=-0.0 size=N/A time=00:21:30.45 bitrate=N/A speed=19.5x    frame=31220 fps=469 q=-0.0 size=N/A time=00:21:42.13 bitrate=N/A speed=19.6x    frame=31498 fps=470 q=-0.0 size=N/A time=00:21:53.72 bitrate=N/A speed=19.6x    frame=31757 fps=470 q=-0.0 size=N/A time=00:22:04.53 bitrate=N/A speed=19.6x    frame=32039 fps=471 q=-0.0 size=N/A time=00:22:16.29 bitrate=N/A speed=19.6x    frame=32310 fps=471 q=-0.0 size=N/A time=00:22:27.59 bitrate=N/A speed=19.6x    frame=32580 fps=471 q=-0.0 size=N/A time=00:22:38.85 bitrate=N/A speed=19.7x    frame=32845 fps=472 q=-0.0 size=N/A time=00:22:49.91 bitrate=N/A speed=19.7x    frame=33098 fps=472 q=-0.0 size=N/A time=00:23:00.46 bitrate=N/A speed=19.7x    frame=33378 fps=472 q=-0.0 size=N/A time=00:23:12.14 bitrate=N/A speed=19.7x    frame=33618 fps=472 q=-0.0 size=N/A time=00:23:22.15 bitrate=N/A speed=19.7x    frame=33874 fps=472 q=-0.0 size=N/A time=00:23:32.82 bitrate=N/A speed=19.7x    frame=34149 fps=473 q=-0.0 size=N/A time=00:23:44.29 bitrate=N/A speed=19.7x    frame=34409 fps=473 q=-0.0 size=N/A time=00:23:55.14 bitrate=N/A speed=19.7x    frame=34688 fps=474 q=-0.0 size=N/A time=00:24:06.77 bitrate=N/A speed=19.8x    frame=34955 fps=474 q=-0.0 size=N/A time=00:24:17.91 bitrate=N/A speed=19.8x    frame=35208 fps=474 q=-0.0 size=N/A time=00:24:28.46 bitrate=N/A speed=19.8x    frame=35499 fps=475 q=-0.0 size=N/A time=00:24:40.60 bitrate=N/A speed=19.8x    frame=35766 fps=475 q=-0.0 size=N/A time=00:24:51.74 bitrate=N/A speed=19.8x    frame=36012 fps=475 q=-0.0 size=N/A time=00:25:02.00 bitrate=N/A speed=19.8x    frame=36268 fps=475 q=-0.0 size=N/A time=00:25:12.67 bitrate=N/A speed=19.8x    frame=36525 fps=475 q=-0.0 size=N/A time=00:25:23.39 bitrate=N/A speed=19.8x    frame=36756 fps=475 q=-0.0 size=N/A time=00:25:33.03 bitrate=N/A speed=19.8x    frame=36978 fps=475 q=-0.0 size=N/A time=00:25:42.29 bitrate=N/A speed=19.8x    frame=37159 fps=474 q=-0.0 size=N/A time=00:25:49.83 bitrate=N/A speed=19.8x    frame=37347 fps=473 q=-0.0 size=N/A time=00:25:57.68 bitrate=N/A speed=19.7x    frame=37555 fps=473 q=-0.0 size=N/A time=00:26:06.35 bitrate=N/A speed=19.7x    frame=37729 fps=472 q=-0.0 size=N/A time=00:26:13.61 bitrate=N/A speed=19.7x    frame=37921 fps=471 q=-0.0 size=N/A time=00:26:21.62 bitrate=N/A speed=19.7x    frame=38113 fps=471 q=-0.0 size=N/A time=00:26:29.62 bitrate=N/A speed=19.6x    frame=38286 fps=470 q=-0.0 size=N/A time=00:26:36.84 bitrate=N/A speed=19.6x    frame=38497 fps=469 q=-0.0 size=N/A time=00:26:45.64 bitrate=N/A speed=19.6x    frame=38727 fps=469 q=-0.0 size=N/A time=00:26:55.23 bitrate=N/A speed=19.6x    [Parsed_ssim_10 @ 0000022418fe6480] SSIM Y:0.993736 (22.031340) U:0.995269 (23.250489) V:0.995226 (23.211513) All:0.994240 (22.395596)
[out#0/null @ 000002241866d500] video:16654KiB audio:303132KiB subtitle:0KiB other streams:0KiB global headers:0KiB muxing overhead: unknown
frame=38759 fps=469 q=-0.0 Lsize=N/A time=00:26:56.57 bitrate=N/A speed=19.6x    
